# xmcd
#
# Track frame offsets: 
#        150
#        9632
#        22187
#        31655
#        41827
#        54145
#        67217
#        81065
#        92260
#        100935
#        116992
#        131115
#        139710
#        155087
#        169967
#        182362
#        192632
#        207097
#        223637
#        239287
#        252267
#        264245
#        276315
#        288445
#
# Disc length: 4016 seconds
#
# Revision: 0
# Processed by: cddbd v1.5.2PL0 Copyright (c) Steve Scherf et al.
# Submitted via: ExactAudioCopy v1.0b3
#
DISCID=610fae18
DTITLE=Jim Shumate - Jim Shumate Collection Vol. 1
DYEAR=1999
DGENRE=Bluegrass
TTITLE0=Katy Hill
TTITLE1=Cotton Eyed Joe
TTITLE2=Kansas City Railroad Blues
TTITLE3=Up And At 'Em
TTITLE4=Cabin In Caroline
TTITLE5=Mean Old Ramblin' Blues
TTITLE6=Black Mountain Rag
TTITLE7=Old Country Baptizing
TTITLE8=Billy In The Lowground
TTITLE9=Texas Line Dance
TTITLE10=Mule Skinner Blues
TTITLE11=Callahan
TTITLE12=Earl's Breakdown
TTITLE13=Stone's Rag
TTITLE14=I'm Going Back To Old Kentucky
TTITLE15=Chestnut Mountain Rag
TTITLE16=Dusty Miller
TTITLE17=Some Old Day
TTITLE18=Paddy On The Turnpike
TTITLE19=Arkansas
TTITLE20=Little Girl Of Mine In Tennessee
TTITLE21=Rawhide
TTITLE22=Florida Blues
TTITLE23=Foggy Mountain Breakdown
EXTD=
EXTT0=
EXTT1=
EXTT2=
EXTT3=
EXTT4=
EXTT5=
EXTT6=
EXTT7=
EXTT8=
EXTT9=
EXTT10=
EXTT11=
EXTT12=
EXTT13=
EXTT14=
EXTT15=
EXTT16=
EXTT17=
EXTT18=
EXTT19=
EXTT20=
EXTT21=
EXTT22=
EXTT23=
PLAYORDER=
